FFmpeg version SVN-r25716, Copyright (c) 2000-2010 the FFmpeg developers  built on Nov 10 2010 12:23:18 with gcc 4.1.2 20080704 (Red Hat 4.1.2-48)  configuration: --enable-libmp3lame --enable-shared --disable-mmx --arch=x86_64  libavutil     50.33. 0 / 50.33. 0  libavcore      0.12. 1 /  0.12. 1  libavcodec    52.94. 4 / 52.94. 4  libavformat   52.84. 0 / 52.84. 0  libavdevice   52. 2. 2 / 52. 2. 2  libavfilter    1.59. 0 /  1.59. 0  libswscale     0.12. 0 /  0.12. 0Seems stream 1 codec frame rate differs from container frame rate: 1200.00 (1200/1) -> 31.17 (187/6)Input #0, mov,mp4,m4a,3gp,3g2,mj2, from '/RAID10/data/converted_video_files/8105.mov':  Metadata:    major_brand     : qt      minor_version   : 537199360    compatible_brands: qt    Duration: 00:00:11.98, start: 0.000000, bitrate: 1025 kb/s    Stream #0.0(eng): Audio: aac, 44100 Hz, stereo, s16, 8 kb/s    Stream #0.1(eng): Video: h264, yuv420p, 500x506, 1013 kb/s, 31.11 fps, 31.17 tbr, 600 tbn, 1200 tbc[buffer @ 0x1e513490] w:500 h:506 pixfmt:yuv420pOutput #0, flv, to '/RAID10/data/converted_video_files/8105.flv':  Metadata:    encoder         : Lavf52.84.0    Stream #0.0(eng): Video: flv, yuv420p, 500x506, q=2-31, 600 kb/s, 1k tbn, 24 tbc    Stream #0.1(eng): Audio: libmp3lame, 22050 Hz, stereo, s16, 96 kb/sStream mapping:  Stream #0.1 -> #0.0  Stream #0.0 -> #0.1Press [q] to stop encodingframe=   28 fps=  0 q=22.6 size=     242kB time=1.17 bitrate=1701.2kbits/s dup=0 drop=8    frame=   65 fps= 63 q=31.0 size=     406kB time=2.71 bitrate=1227.0kbits/s dup=0 drop=19    frame=  102 fps= 66 q=31.0 size=     563kB time=4.25 bitrate=1084.3kbits/s dup=0 drop=30    frame=  137 fps= 67 q=31.0 size=     721kB time=5.71 bitrate=1035.4kbits/s dup=0 drop=40    frame=  174 fps= 68 q=31.0 size=     888kB time=7.25 bitrate=1003.6kbits/s dup=0 drop=51    frame=  213 fps= 70 q=31.0 size=     901kB time=7.37 bitrate=1001.8kbits/s dup=0 drop=63    frame=  288 fps= 85 q=2.0 Lsize=    1060kB time=7.50 bitrate=1157.8kbits/s dup=0 drop=85    video:962kB audio:88kB global headers:0kB muxing overhead 0.885106%